<svg xmlns="http://www.w3.org/2000/svg" xmlns:xlink="http://www.w3.org/1999/xlink" width="750" height="500" viewBox="0 0 750 500">
  <defs>
    <clipPath id="clip-Layout">
      <rect width="750" height="500"/>
    </clipPath>
  </defs>
  <g id="Layout" clip-path="url(#clip-Layout)">
    <g id="BACKGROUND">
      <path id="Path_1" data-name="Path 1" d="M639.177,444.388a241.439,241.439,0,0,0,12.49-76.741c0-144.2-127.286-261.1-284.3-261.1s-284.3,116.9-284.3,261.1a241.466,241.466,0,0,0,12.489,76.741Z" fill="#f4e6eb" opacity="0.53" style="mix-blend-mode: multiply;isolation: isolate"/>
    </g>
    <g id="OBJECTS">
      <g id="Group_73" data-name="Group 73">
        <g id="Group_72" data-name="Group 72">
          <g id="Group_37" data-name="Group 37">
            <path id="Path_2" data-name="Path 2" d="M366.886,412.077a94.665,94.665,0,0,0,33.279-25.945c3.828-4.712,7.348-10.817,5.3-16.508-1.461-4.057-5.605-7.281-5.351-11.58.307-5.2,6.447-7.58,11.036-10.151,19.957-11.183,15.248-39.4,3.342-54.679a38.563,38.563,0,0,0-26.674-14.462c-7.82-.693-16.78.677-22.57-4.557-4.653-4.206-5.323-11.115-8.282-16.616a22.1,22.1,0,0,0-13.08-10.574c-4.381-1.289-9.1-1.206-13.435-2.635-8.233-2.712-13.851-10.583-16.119-18.851-2.949-10.752-1.6-22.4-3.274-33.36a237.5,237.5,0,0,0-5.528-27.788c-4.775-17.219-13.4-34.1-30.043-42.72a50.5,50.5,0,0,0-22.295-5.58c-6.809-.112-13.667-.8-20.277,1.219a27.087,27.087,0,0,1-4.275,1.153c-4.385.587-8.495-.669-12.968.14a65.127,65.127,0,0,0-11.287,3.141,74.432,74.432,0,0,0-21.121,12.317c-12.259,10.124-21.693,24.32-23.992,40.122-2.547,17.5,5.371,36.837-3.355,52.278-2.554,4.519-6.339,8.221-9.482,12.363-7.631,10.056-12.187,24.467-10.548,37.1,1.879,14.472,5.5,25.712-2.952,39.421-4.682,7.6-11.653,13.552-16.895,20.783-6.053,8.351-10.548,15.259-9.452,25.814.971,9.355,4.843,19.414.9,28.591-1.383,3.218-3.665,5.963-5.612,8.882A49.253,49.253,0,0,0,96.1,441.467a4.786,4.786,0,0,0,1.871,2.876,5.324,5.324,0,0,0,3.674.086,88.24,88.24,0,0,1,39.88.862" fill="#757ce3"/>
            <path id="Path_3" data-name="Path 3" d="M224.186,126.844c10.733-2.7,21.868-4.479,32.863-3.208s21.908,5.853,29.175,14.2a50.594,50.594,0,0,1,8.171,13.789c3.37,8.029,3.1,13.862,3.692,22.16.747,10.439,1.949,20.865,2.921,31.285,1,10.722,2.043,21.619,6.062,31.61,2.45,6.089,6.238,12.372,11.42,16.533,4.989,4.006,8.456,2.81,14.234,3.264,15.341,1.2,16.053,17.816,26.531,25.258,3.234,2.3,7.2,3.247,11.059,4.186,10.647,2.593,21.474,5.585,30.424,11.908s15.793,16.674,15.071,27.609c-.368,5.587-2.689,10.576-5.733,15.182-3.346,5.06-5.778,5.085-11.923,5.486a38.722,38.722,0,0,0-21.563,8.383c-6.28,5.042-10.857,11.955-17.151,16.979-10.411,8.311-24.377,10.594-37.694,10.965-23.178.645-47.29-4.025-65.871-17.895-5.349-3.993-10.3-8.886-12.782-15.082a42.406,42.406,0,0,1-2.413-11.727,177.035,177.035,0,0,1-.766-21.991c.162-5.92.616-11.912-.584-17.711-2.658-12.844-12.83-22.588-22.489-31.46" fill="#757ce3" opacity="0.29" style="mix-blend-mode: multiply;isolation: isolate"/>
            <g id="Group_1" data-name="Group 1" opacity="0.29" style="mix-blend-mode: multiply;isolation: isolate">
              <path id="Path_4" data-name="Path 4" d="M125.682,451.566a2.457,2.457,0,0,0-.4-.459c-.169-.17-.343-.345-.525-.53l-.668-.784a17.544,17.544,0,0,1-3.176-5.962,25.277,25.277,0,0,1-.883-10.631,48.347,48.347,0,0,1,4.213-13.591c2.115-4.867,4.937-10.035,6.825-16.1a36.372,36.372,0,0,0,1.725-9.669,23.247,23.247,0,0,0-2.024-10.241c-1.435-3.288-3.423-6.334-4.889-9.656a20.308,20.308,0,0,1-1.567-5.2,18.192,18.192,0,0,1,.038-5.506,28.08,28.08,0,0,1,4.237-10.566,61.337,61.337,0,0,1,7.539-9.23c2.789-2.945,5.645-5.8,8.175-8.9a42.811,42.811,0,0,0,9.671-31.919c-.766-7.1-2.777-13.538-3.928-19.664a52.488,52.488,0,0,1-.674-17.206A54.088,54.088,0,0,1,153.089,252a52.542,52.542,0,0,1,5.178-9.466,56.572,56.572,0,0,1,4.22-5.381l1.2-1.321a2.426,2.426,0,0,0,.381-.48,2.413,2.413,0,0,0-.465.4l-1.285,1.246a48,48,0,0,0-4.418,5.28,51.009,51.009,0,0,0-5.4,9.47,53.864,53.864,0,0,0-3.939,13.9,51.928,51.928,0,0,0-.473,8.416,57.633,57.633,0,0,0,1.015,9.078c1.125,6.2,3.092,12.641,3.809,19.594a41.837,41.837,0,0,1-9.5,31.081c-2.484,3.041-5.319,5.878-8.124,8.838a62.163,62.163,0,0,0-7.671,9.41,29.153,29.153,0,0,0-4.385,11.01,19.275,19.275,0,0,0-.026,5.848,21.366,21.366,0,0,0,1.664,5.474c1.531,3.429,3.528,6.464,4.925,9.64a22.262,22.262,0,0,1,1.983,9.788,35.623,35.623,0,0,1-1.626,9.411c-1.808,5.951-4.573,11.128-6.657,16.049a48.317,48.317,0,0,0-4.106,13.848,25.319,25.319,0,0,0,1.1,10.843,16.909,16.909,0,0,0,3.427,5.973c.272.288.5.548.719.756l.57.493A2.385,2.385,0,0,0,125.682,451.566Z" fill="#757ce3"/>
            </g>
            <g id="Group_2" data-name="Group 2" opacity="0.29" style="mix-blend-mode: multiply;isolation: isolate">
              <path id="Path_5" data-name="Path 5" d="M170.055,374.339c.1-.049-.857-1.859-1.988-5.346a42.138,42.138,0,0,1-1.833-15.277,39.584,39.584,0,0,1,2.126-10.4,97.055,97.055,0,0,1,5.057-11.2,60.363,60.363,0,0,0,5.079-12.789A27.244,27.244,0,0,0,179.22,312a33.99,33.99,0,0,0-1.053-7.474,97.782,97.782,0,0,0-4.929-13.893,102.467,102.467,0,0,1-4.6-12.775,50.2,50.2,0,0,1-.467-22.706,48.594,48.594,0,0,1,2.527-8.442,53.429,53.429,0,0,1,2.833-6.038c.92-1.585,1.646-2.814,2.2-3.61a7.15,7.15,0,0,0,.758-1.276,7.118,7.118,0,0,0-.949,1.142,40.132,40.132,0,0,0-2.4,3.518,48.5,48.5,0,0,0-3.042,6.019,47.325,47.325,0,0,0-2.729,8.513,50.18,50.18,0,0,0,.234,23.146,100.856,100.856,0,0,0,4.584,12.939,98.963,98.963,0,0,1,4.854,13.736,33.146,33.146,0,0,1,1.027,7.233,26.251,26.251,0,0,1-.679,7.028,60.3,60.3,0,0,1-4.93,12.572A95.041,95.041,0,0,0,167.451,343a39.709,39.709,0,0,0-2.035,10.667,40.587,40.587,0,0,0,2.223,15.469,35.314,35.314,0,0,0,1.674,3.917A7.125,7.125,0,0,0,170.055,374.339Z" fill="#757ce3"/>
            </g>
            <g id="Group_5" data-name="Group 5" opacity="0.29" style="mix-blend-mode: multiply;isolation: isolate">
              <g id="Group_3" data-name="Group 3">
                <path id="Path_6" data-name="Path 6" d="M356.038,315.875c0-.115-1.72-.076-4.753-.582a33.249,33.249,0,0,1-12.04-4.6,31.687,31.687,0,0,1-6.813-5.716,67.646,67.646,0,0,1-5.971-8.392,52.4,52.4,0,0,0-3.313-4.606,20.111,20.111,0,0,0-4.394-4.092,12.778,12.778,0,0,0-5.931-2.087,20.924,20.924,0,0,0-6.37.655c-2.081.479-4.078,1.077-6.058,1.493a15.65,15.65,0,0,1-5.814.309l-.7-.12-.667-.209a7.067,7.067,0,0,1-1.29-.5,10.291,10.291,0,0,1-2.265-1.549,16.538,16.538,0,0,1-3.312-4.279,45.593,45.593,0,0,1-4.85-18.445c-.367-5.493-.184-9.971-.109-13.06.035-1.284.067-2.457.1-3.561a5.069,5.069,0,0,0-.039-1.247,5.034,5.034,0,0,0-.2,1.232c-.089.811-.2,2.008-.315,3.553a107.2,107.2,0,0,0-.258,13.134,45.382,45.382,0,0,0,4.735,18.913,17.5,17.5,0,0,0,3.507,4.585,11.344,11.344,0,0,0,2.5,1.728,8.05,8.05,0,0,0,1.445.572l.748.235.771.138a16.665,16.665,0,0,0,6.237-.3c2.046-.427,4.051-1.025,6.083-1.492a19.926,19.926,0,0,1,6.016-.636,11.668,11.668,0,0,1,5.406,1.889c3.209,2.126,5.41,5.342,7.437,8.337a66.262,66.262,0,0,0,6.15,8.448,32.445,32.445,0,0,0,19.5,10.119,20.013,20.013,0,0,0,2.061.187,14.157,14.157,0,0,0,1.513.036A5.02,5.02,0,0,0,356.038,315.875Z" fill="#757ce3"/>
              </g>
              <g id="Group_4" data-name="Group 4">
                <path id="Path_7" data-name="Path 7" d="M364.672,300.257a4.384,4.384,0,0,0-1.144-.127c-.371-.033-.825-.128-1.362-.2a14.938,14.938,0,0,1-1.795-.527c-2.659-.916-6.108-3.37-9.106-7.462a59.3,59.3,0,0,1-4.345-7.08,61.529,61.529,0,0,0-5.15-8.2,23,23,0,0,0-3.711-3.8,19.179,19.179,0,0,0-4.817-2.782c-3.518-1.428-7.382-1.93-11.213-2.564s-7.552-1.4-10.7-3.133a23.7,23.7,0,0,1-7.657-6.878,32.882,32.882,0,0,1-4.381-8.349,46.525,46.525,0,0,1-2-8.034,104.05,104.05,0,0,1-1.062-12.027c-.055-1.175-.106-2.26-.154-3.293a4.358,4.358,0,0,0-.128-1.149,4.383,4.383,0,0,0-.106,1.151c-.03.754-.054,1.866-.063,3.3a85.821,85.821,0,0,0,.7,12.142,45.714,45.714,0,0,0,1.906,8.227,33.31,33.31,0,0,0,4.424,8.66,24.567,24.567,0,0,0,7.975,7.246c3.337,1.849,7.211,2.654,11.061,3.281s7.637,1.129,10.979,2.474a18.2,18.2,0,0,1,4.551,2.6,22.129,22.129,0,0,1,3.563,3.594c4.112,5.253,6.4,11.052,9.68,15.111,3.15,4.126,6.812,6.58,9.613,7.392a13.426,13.426,0,0,0,1.88.44c.559.042,1.028.1,1.409.1A4.354,4.354,0,0,0,364.672,300.257Z" fill="#757ce3"/>
              </g>
            </g>
            <ellipse id="Ellipse_1" data-name="Ellipse 1" cx="23.09" cy="20.541" rx="23.09" ry="20.541" transform="translate(273.617 213.493) rotate(-63.721)" fill="#d88baa"/>
            <path id="Path_8" data-name="Path 8" d="M273.5,247.633s-4.546,40.53,6.7,49.914,62.94,2.414,66.4,23.777S350.979,441.1,350.979,441.1l-161.767,3.165,12.018-21.214-19.559-37.381,30.611-82.17,21.175-50.1Z" fill="#eaa0bb"/>
            <g id="Group_6" data-name="Group 6">
              <path id="Path_9" data-name="Path 9" d="M312.915,185.164c-.026-.14-2.192.28-4.877,2.456a21.693,21.693,0,0,0-6.864,11.23,40.577,40.577,0,0,0-.925,13.1c.259,3.334.617,5.365.806,5.354.21-.013.213-2.08.218-5.389a51.2,51.2,0,0,1,1.3-12.691,23.245,23.245,0,0,1,6.142-10.832C311.063,186.149,313.021,185.4,312.915,185.164Z" fill="#964868"/>
            </g>
            <g id="Group_7" data-name="Group 7">
              <path id="Path_10" data-name="Path 10" d="M307.849,212.995c.167.059.767-1.019,1.225-2.945a18.819,18.819,0,0,0,.112-7.7,19.106,19.106,0,0,0-1.307-4.076,15.375,15.375,0,0,0-1.814-2.984c-1.238-1.564-2.284-2.24-2.4-2.113-.16.16.6,1.079,1.552,2.69a21.687,21.687,0,0,1,1.434,2.933,23.982,23.982,0,0,1,1.112,3.826,25.7,25.7,0,0,1,.3,7.259C307.881,211.757,307.638,212.927,307.849,212.995Z" fill="#964868"/>
            </g>
            <g id="Group_8" data-name="Group 8" opacity="0.22" style="mix-blend-mode: multiply;isolation: isolate">
              <path id="Path_11" data-name="Path 11" d="M233.457,253.4l-14.075,33.3a115.912,115.912,0,0,0,30,2.866,94.464,94.464,0,0,0,24.9-4.374c-3.269-15.344-.779-37.557-.779-37.557Z" fill="#eaa0bb"/>
            </g>
            <rect id="Rectangle_3" data-name="Rectangle 3" width="121.906" height="144.509" rx="54.384" transform="translate(163.508 144.337) rotate(-12.588)" fill="#eaa0bb"/>
            <ellipse id="Ellipse_2" data-name="Ellipse 2" cx="20.541" cy="23.09" rx="20.541" ry="23.09" transform="translate(152.239 240.366) rotate(-71.779)" fill="#eaa0bb"/>
            <g id="Group_9" data-name="Group 9">
              <path id="Path_12" data-name="Path 12" d="M189.658,238.243c.157-.037-.119-2-1.5-4.859a25.462,25.462,0,0,0-8.038-9.3,24.927,24.927,0,0,0-6.058-3.149,18.919,18.919,0,0,0-5.467-1.161,8.743,8.743,0,0,0-3.758.576c-.833.357-1.2.706-1.159.782.091.212,1.841-.749,4.835-.337a25.49,25.49,0,0,1,10.77,4.472,28.958,28.958,0,0,1,7.975,8.6C188.81,236.492,189.432,238.315,189.658,238.243Z" fill="#964868"/>
            </g>
            <g id="Group_10" data-name="Group 10">
              <path id="Path_13" data-name="Path 13" d="M181.624,238.1c.107-.195-.648-.718-1.5-1.821A11.339,11.339,0,0,1,178,231.364a24.075,24.075,0,0,1-.175-5.553c.083-1.458.113-2.389-.089-2.429s-.575.814-.925,2.283a15.02,15.02,0,0,0-.237,5.954,9.557,9.557,0,0,0,2.8,5.362C180.561,238.047,181.555,238.262,181.624,238.1Z" fill="#964868"/>
            </g>
            <g id="Group_14" data-name="Group 14">
              <g id="Group_11" data-name="Group 11">
                <path id="Path_14" data-name="Path 14" d="M253.957,218.649c.07.078.768-.337,1.73-1.439a10.1,10.1,0,0,0,1.448-2.247,8.637,8.637,0,0,0,.836-3.518,7.175,7.175,0,0,0-1.354-4.268,6.251,6.251,0,0,0-4.473-2.715c-1.959-.157-3.689.654-4.972.124-1.31-.444-2.129-2.083-2.534-3.83-.215-.871-.327-1.8-.464-2.727-.121-.92-.24-1.827-.325-2.722-.181-1.789-.307-3.52-.361-5.173a85.823,85.823,0,0,1,.134-8.793c.344-5.006.9-8.089.637-8.144-.2-.049-1.194,2.96-1.861,8.025a65.157,65.157,0,0,0,.55,19.943,10.168,10.168,0,0,0,1.141,2.9,4.889,4.889,0,0,0,2.509,2.124,6.006,6.006,0,0,0,3.056.12,10.533,10.533,0,0,1,2.364-.251,4.832,4.832,0,0,1,3.441,1.978,6.038,6.038,0,0,1,1.283,3.429,9.453,9.453,0,0,1-1.6,5.344C254.4,217.97,253.864,218.553,253.957,218.649Z" fill="#964868"/>
              </g>
              <g id="Group_12" data-name="Group 12">
                <path id="Path_15" data-name="Path 15" d="M250.65,217.2c.115-.471-.635-1.057-1.593-1.523s-1.889-.677-2.184-.294.288,1.313,1.431,1.861S250.541,217.657,250.65,217.2Z" fill="#964868"/>
              </g>
              <g id="Group_13" data-name="Group 13">
                <path id="Path_16" data-name="Path 16" d="M254.65,225.958c-.077-.247-.859-.19-2.04-.241a13.516,13.516,0,0,1-8.324-3.2c-.912-.753-1.455-1.319-1.677-1.186-.191.106-.011.936.779,2.025a9.673,9.673,0,0,0,9.327,3.583C254.03,226.661,254.72,226.165,254.65,225.958Z" fill="#964868"/>
              </g>
            </g>
            <path id="Path_17" data-name="Path 17" d="M274.314,226.374a19.738,19.738,0,0,0,19.739,19.739c.445,0,.881-.037,1.319-.066a54.185,54.185,0,0,0,7.32-37.4,19.7,19.7,0,0,0-28.378,17.727Z" fill="#eaa0bb" opacity="0.18" style="mix-blend-mode: multiply;isolation: isolate"/>
            <circle id="Ellipse_3" data-name="Ellipse 3" cx="19.739" cy="19.739" r="19.739" transform="translate(200.753 259.568) rotate(-76.831)" fill="#eaa0bb" opacity="0.18" style="mix-blend-mode: multiply;isolation: isolate"/>
            <path id="Path_18" data-name="Path 18" d="M272.29,160.025c0,3.084-4.983,5.585-11.131,5.585s-11.131-2.5-11.131-5.585,4.984-5.585,11.131-5.585S272.29,156.94,272.29,160.025Z" fill="#964868"/>
            <path id="Path_19" data-name="Path 19" d="M217.738,169.275c1.67,2.593-1.167,7.393-6.336,10.721s-10.713,3.922-12.382,1.328,1.167-7.393,6.336-10.72S216.069,166.681,217.738,169.275Z" fill="#964868"/>
            <path id="Path_20" data-name="Path 20" d="M350.979,441.1s-.912-98.409-4.377-119.772c-3.1-19.112-44.8-15.55-61.6-21.3a88.545,88.545,0,0,1-71.061-.443l-1.657,3.92-30.611,82.17,19.559,37.381-12.018,21.214Z" fill="#e262a7"/>
            <path id="Path_21" data-name="Path 21" d="M296.508,304.885c1.109-.629,2.2-1.3,3.284-1.984-5.731-.728-10.924-1.557-14.792-2.882a88.545,88.545,0,0,1-71.061-.443l-1.657,3.92-1.969,5.287C237.591,320.64,270.541,319.616,296.508,304.885Z" fill="#c44d91"/>
            <path id="Path_22" data-name="Path 22" d="M324.308,441.618c.4-3.176.9-6.35,1.473-9.51,2.394-13.307,6.069-26.977,7.186-40.663a19.727,19.727,0,0,0-3.41-12.647,166.455,166.455,0,0,0-11.536-15.349l-4.71-58.913h0q-.744-.1-1.488-.189-2.158-.27-4.3-.519l-.707,56.817-38.655,10.076-62.526-8.2-18.109,34.33,13.707,26.2-12.018,21.214Z" fill="#c44d91"/>
            <g id="Group_21" data-name="Group 21">
              <path id="Path_23" data-name="Path 23" d="M259.2,206.021s-4.746-21.826,14.469-23.951c0,0,8.989-.675,14.523,11.868C288.19,193.938,282.03,213.586,259.2,206.021Z" fill="#fff"/>
              <g id="Group_15" data-name="Group 15" opacity="0.33" style="mix-blend-mode: multiply;isolation: isolate">
                <path id="Path_24" data-name="Path 24" d="M263.548,180.253a5.458,5.458,0,0,0-2.164,1.26,13.838,13.838,0,0,0-5.038,10.684,5.42,5.42,0,0,0,.4,2.471,17.512,17.512,0,0,0,.128-2.454,15.839,15.839,0,0,1,4.858-10.3C262.82,180.879,263.613,180.36,263.548,180.253Z" fill="#eaa0bb"/>
              </g>
              <path id="Path_25" data-name="Path 25" d="M274.574,182.094a22.054,22.054,0,0,0,8.412,20.027,22.363,22.363,0,0,0,5.2-8.183C283.718,183.8,276.992,182.3,274.574,182.094Z" fill="#e262a7"/>
              <g id="Group_16" data-name="Group 16">
                <path id="Path_26" data-name="Path 26" d="M270.738,174.639c-.319.027-.478,1.8-.355,3.96s.482,3.9.8,3.893.479-1.782.355-3.959S271.057,174.612,270.738,174.639Z" fill="#964868"/>
              </g>
              <g id="Group_17" data-name="Group 17">
                <path id="Path_27" data-name="Path 27" d="M279.188,175.314c-.3-.1-1.174,1.512-1.942,3.6s-1.149,3.875-.854,4,1.166-1.488,1.942-3.6S279.492,175.413,279.188,175.314Z" fill="#964868"/>
              </g>
              <g id="Group_18" data-name="Group 18">
                <path id="Path_28" data-name="Path 28" d="M286.376,179.108c-.214-.234-1.761.831-3.357,2.48s-2.613,3.226-2.372,3.433,1.634-1.008,3.2-2.627S286.594,179.346,286.376,179.108Z" fill="#964868"/>
              </g>
              <g id="Group_19" data-name="Group 19" opacity="0.33" style="mix-blend-mode: multiply;isolation: isolate">
                <path id="Path_29" data-name="Path 29" d="M271.16,188.69c6.978-1.181,12.358,1.237,17.03,5.248-5.534-12.544-14.523-11.868-14.523-11.868-4.53.5-8.886,2.365-11.617,6.136a20.542,20.542,0,0,0-3.6,10.707,30.162,30.162,0,0,0,.124,4.808,7.013,7.013,0,0,0,.447,2.62C259.446,198.386,262.246,190.2,271.16,188.69Z" fill="#eaa0bb"/>
              </g>
              <g id="Group_20" data-name="Group 20">
                <path id="Path_30" data-name="Path 30" d="M288.19,193.938c.121-.043.02-.794-.457-2.068a17.29,17.29,0,0,0-2.959-4.959,16.508,16.508,0,0,0-7.1-4.984,15.068,15.068,0,0,0-10.687.26,13.1,13.1,0,0,0-4.615,3.3,16.214,16.214,0,0,0-2.807,4.392,20.828,20.828,0,0,0-1.635,8.462,28.612,28.612,0,0,0,.6,5.685c.281,1.314.536,2.018.671,2s.151-.767.113-2.091a53.7,53.7,0,0,1,.048-5.543,21.47,21.47,0,0,1,1.9-7.735,13,13,0,0,1,6.516-6.6,13.759,13.759,0,0,1,9.307-.352,16.238,16.238,0,0,1,6.629,4.175,22.935,22.935,0,0,1,3.31,4.339C287.7,193.337,288.048,193.991,288.19,193.938Z" fill="#964868"/>
              </g>
            </g>
            <g id="Group_28" data-name="Group 28">
              <path id="Path_31" data-name="Path 31" d="M200.739,210.434s4.228-17.932,19.92-14.718c0,0,10.676-1.522,14.3,19.477C231.013,221.338,207.957,231.372,200.739,210.434Z" fill="#fff"/>
              <g id="Group_22" data-name="Group 22" opacity="0.33" style="mix-blend-mode: multiply;isolation: isolate">
                <path id="Path_32" data-name="Path 32" d="M232.755,200.4a7.025,7.025,0,0,0-1.437-2.43,18.063,18.063,0,0,0-11.633-6.654,7.033,7.033,0,0,0-2.823-.006,20.641,20.641,0,0,0,2.733.531,21.031,21.031,0,0,1,11.317,6.473A20.832,20.832,0,0,0,232.755,200.4Z" fill="#eaa0bb"/>
              </g>
              <path id="Path_33" data-name="Path 33" d="M234.961,215.193c-2.4-13.917-7.9-17.939-11.337-19.071a20.211,20.211,0,0,0,8.082,22.2A12.4,12.4,0,0,0,234.961,215.193Z" fill="#e262a7"/>
              <g id="Group_23" data-name="Group 23">
                <path id="Path_34" data-name="Path 34" d="M203.165,203.329c.177-.266-1.363-1.52-3.44-2.8s-3.89-2.09-4.049-1.812,1.382,1.531,3.441,2.8S202.988,203.6,203.165,203.329Z" fill="#964868"/>
              </g>
              <g id="Group_24" data-name="Group 24">
                <path id="Path_35" data-name="Path 35" d="M206.586,199.354c.265-.17-.581-1.948-2.1-3.808s-3.093-3.046-3.313-2.82.942,1.744,2.415,3.553S206.313,199.531,206.586,199.354Z" fill="#964868"/>
              </g>
              <g id="Group_25" data-name="Group 25">
                <path id="Path_36" data-name="Path 36" d="M210.975,196.674c.3-.09-.006-2.048-.849-4.32s-1.88-3.961-2.169-3.831.258,2,1.082,4.234S210.665,196.766,210.975,196.674Z" fill="#964868"/>
              </g>
              <g id="Group_26" data-name="Group 26" opacity="0.33" style="mix-blend-mode: multiply;isolation: isolate">
                <path id="Path_37" data-name="Path 37" d="M234.961,215.193c-3.626-21-14.3-19.477-14.3-19.477-15.692-3.214-19.92,14.718-19.92,14.718.006.018.014.034.02.053,3.6-5.3,9.8-9,16.168-8.512a19.015,19.015,0,0,1,12.344,6.5,29.622,29.622,0,0,1,4.908,7.708A7.831,7.831,0,0,0,234.961,215.193Z" fill="#eaa0bb"/>
              </g>
              <g id="Group_27" data-name="Group 27">
                <path id="Path_38" data-name="Path 38" d="M234.961,215.193c.134-.027.124-.8-.057-2.191a34.021,34.021,0,0,0-1.3-5.8,22.6,22.6,0,0,0-4.27-7.882,16.107,16.107,0,0,0-4.165-3.487,14.718,14.718,0,0,0-5.584-1.824,16.742,16.742,0,0,0-10.821,2.466,18,18,0,0,0-6.121,6.62,18.4,18.4,0,0,0-1.992,5.674c-.219,1.4-.165,2.189-.04,2.206.348.08.706-3.073,3.266-7.149a17.851,17.851,0,0,1,5.863-5.757,15.523,15.523,0,0,1,9.6-2.046,13.239,13.239,0,0,1,4.846,1.539,14.94,14.94,0,0,1,3.746,3,23.479,23.479,0,0,1,4.318,7.13c.909,2.249,1.456,4.169,1.881,5.483S234.821,215.221,234.961,215.193Z" fill="#964868"/>
              </g>
            </g>
            <path id="Path_39" data-name="Path 39" d="M238.412,289.528a49.147,49.147,0,0,0-4.429-26.182,47.67,47.67,0,0,0-9.425-13.485c-1.151-1.147-11.159-10.526-11.288-4.446-.031,1.468.983,3.177,1.646,4.45,1.731,3.32,5,7.575,5.089,11.435.062,2.739-1.421,5.026-4.124,3.6-5.621-2.97-9.267-12.6-10.785-18.242-1.661-6.167-2.347-12.577-4.211-18.686-.3-.979-.794-2.1-1.8-2.286-1.162-.212-2.071.979-2.551,2.059-2.318,5.219-1.852,11.239-.742,16.841a80.349,80.349,0,0,0,3.049,11.121c1.143,3.238,2.5,6.824,1.14,9.98a71.762,71.762,0,0,1-9.977-24.7,75.627,75.627,0,0,0-1.857-8.507c-.269-.832-.828-1.814-1.7-1.718a1.779,1.779,0,0,0-.994.58c-2.993,2.938-2.976,7.734-2.272,11.868a54.451,54.451,0,0,0,4.679,14.6c1.378,2.841,3.039,5.68,3.228,8.832a13.148,13.148,0,0,1-6.161-5.773c-1.479-2.456-2.536-5.145-3.981-7.621-1.163-1.991-4.314-5.806-5.991-2.51-.862,1.7-.044,4.09.561,5.719A37.682,37.682,0,0,0,182,267.013a120.5,120.5,0,0,0,10.026,10.062c3.193,3.018,5.945,4.58,5.368,9.484-.033.277-.082.557-.139.838-17.364,29.313-49.865,85.156-51.784,95.616-2.626,14.314-5.606,43.6,14.535,56.429s47.96-25.861,55.861-52.86,22.873-96.836,22.873-96.836Z" fill="#dd8cac"/>
            <g id="Group_32" data-name="Group 32">
              <path id="Path_40" data-name="Path 40" d="M249.732,410.64a14.393,14.393,0,0,1-11.077,5.19h-4.211A14.425,14.425,0,0,1,220.019,401.4v-2.376A14.425,14.425,0,0,1,234.444,384.6h4.211a14.393,14.393,0,0,1,11.077,5.19v-13.13a23.585,23.585,0,0,0-9.725-2.089h-6.916A23.691,23.691,0,0,0,209.4,398.266v3.9a23.691,23.691,0,0,0,23.691,23.692h6.916a23.584,23.584,0,0,0,9.725-2.089Z" fill="#d3d7f2"/>
              <path id="Path_41" data-name="Path 41" d="M318.273,365.931a9.889,9.889,0,0,0-1.388-5.389c-3.453-4.833-11.733-6.871-17.529-8.4a92.239,92.239,0,0,0-44.886,0c-5.8,1.532-14.076,3.57-17.53,8.4a9.888,9.888,0,0,0-1.387,5.389,155.438,155.438,0,0,0,9.856,63.008c1,2.657,2.157,5.4,4.489,7.293a17.558,17.558,0,0,0,6.9,2.97,57.337,57.337,0,0,0,13.651,1.622c2.837.007,5.682.345,8.563.3a79.028,79.028,0,0,0,18.016-1.927,17.558,17.558,0,0,0,6.9-2.97c2.332-1.889,3.488-4.636,4.489-7.293A155.438,155.438,0,0,0,318.273,365.931Z" fill="#fff"/>
              <ellipse id="Ellipse_4" data-name="Ellipse 4" cx="32.939" cy="8.798" rx="32.939" ry="8.798" transform="translate(243.95 356.456)" fill="#d3d7f2"/>
              <ellipse id="Ellipse_5" data-name="Ellipse 5" cx="29.139" cy="4.696" rx="29.139" ry="4.696" transform="translate(247.751 364.661)" fill="#56303f"/>
              <g id="Group_31" data-name="Group 31">
                <circle id="Ellipse_6" data-name="Ellipse 6" cx="21.097" cy="21.097" r="21.097" transform="translate(249.264 414.703) rotate(-67.191)" fill="#f2a057"/>
                <g id="Group_29" data-name="Group 29">
                  <path id="Path_42" data-name="Path 42" d="M269.6,400.217c0,1.532-.62,2.774-1.385,2.774s-1.384-1.242-1.384-2.774.62-2.775,1.384-2.775S269.6,398.685,269.6,400.217Z" fill="#9b2f6d"/>
                  <path id="Path_43" data-name="Path 43" d="M286.947,400.217c0,1.532-.62,2.774-1.385,2.774s-1.384-1.242-1.384-2.774.619-2.775,1.384-2.775S286.947,398.685,286.947,400.217Z" fill="#9b2f6d"/>
                </g>
                <g id="Group_30" data-name="Group 30">
                  <path id="Path_44" data-name="Path 44" d="M272.178,402.269c0,.021,0,.04,0,.06a5.509,5.509,0,1,0,10.981,0c0-.02,0-.039,0-.06Z" fill="#9b2f6d"/>
                  <path id="Path_45" data-name="Path 45" d="M281.207,406.877a4.038,4.038,0,0,0-7.084,0,5.157,5.157,0,0,0,7.084,0Z" fill="#e262a7"/>
                </g>
                <path id="Path_46" data-name="Path 46" d="M287.045,410.1a8.069,8.069,0,0,0,5.362,7.6,21,21,0,0,0,5.58-14.259c0-.3-.033-.6-.046-.894a8.056,8.056,0,0,0-10.9,7.556Z" fill="#e262a7"/>
                <path id="Path_47" data-name="Path 47" d="M258.661,402.023a8.036,8.036,0,0,0-2.823.517c-.013.3-.045.593-.045.894a21,21,0,0,0,5.58,14.259,8.069,8.069,0,0,0-2.712-15.67Z" fill="#e262a7"/>
              </g>
            </g>
            <path id="Path_48" data-name="Path 48" d="M325.1,390.207a143.862,143.862,0,0,0-27.258-9.571c-2.426-.586-5.058-1.094-7.352-.11a1.72,1.72,0,0,0-.988.835,1.867,1.867,0,0,0,.588,1.785c3.162,3.707,8.091,5.118,12.381,7.045,3.762,1.691,11.336,5.933,4.4,9.418a12.408,12.408,0,0,1-5.7,1.007A37.481,37.481,0,0,1,280,393.771c-2.089-1.479-4.1-3.213-6.57-3.883a2.759,2.759,0,0,0-1.605-.055,2.2,2.2,0,0,0-1.262,2.361,5.643,5.643,0,0,0,1.226,2.585c6.409,8.768,17.689,13.434,28.524,12.689a20.815,20.815,0,0,1-15.728,1.77c-5.146-1.5-9.482-4.92-14.29-7.288a8.2,8.2,0,0,0-3.492-1.045c-5.931-.034-1.231,6.288,1,7.822,9.036,6.206,21.084,8.887,31.863,8.549-2.686.084-5.558,1.309-8.232,1.75a68.605,68.605,0,0,1-8.944.877c-5.338.172-10.248-1.194-15.558-1.559-1.07-.074-2.489.12-2.675,1.177a1.924,1.924,0,0,0,.275,1.181c1.9,3.694,6.619,4.778,10.76,5.138a82.381,82.381,0,0,0,22.978-1.232,60.551,60.551,0,0,1-14.5,5.706c-2.729.685-5.577,1.208-7.944,2.731-.806.519-1.586,1.652-.9,2.321a1.673,1.673,0,0,0,.894.362c7.77,1.41,15.549-2.036,23.43-2.533,6.047-.381,12,.968,17.976,1.624a62.388,62.388,0,0,0,9.169.191c2.586-.091,5.035.675,7.66.51,8.718-.547,17.433-3.948,23.417-10.311a29.311,29.311,0,0,0,7.422-14.657c.865-4.677.39-9.978-2.871-13.44" fill="#eaa0bb"/>
            <path id="Path_49" data-name="Path 49" d="M186.087,214.144c3.221-.618,5-3.95,6.872-6.646,7.446-10.753,21.342-14.746,31.3-23.223a47.884,47.884,0,0,0,14.368-22.311,61.951,61.951,0,0,0,1.908-26.613c-.305-2.234-.809-4.631-2.495-6.128a6.912,6.912,0,0,0-6.6-1.017,19.682,19.682,0,0,0-5.96,3.578" fill="#eaa0bb" opacity="0.33" style="mix-blend-mode: multiply;isolation: isolate"/>
            <path id="Path_50" data-name="Path 50" d="M177.442,153.23c6.575-10.183,15.273-15.212,24.9-21.849,8.878-6.12,16.441-10.621,27.953-9.584a3.813,3.813,0,0,1,2.024.6,3.663,3.663,0,0,1,.791.945c11.461,17.645-.93,44.634-14.022,57.845-6.5,6.565-14.349,11.622-22.177,16.536-6.592,4.137-13.745,8.358-21.522,8.052a6.439,6.439,0,0,1-3.669-1.031c-1.306-.984-1.835-2.672-2.224-4.261A61.346,61.346,0,0,1,177.442,153.23Z" fill="#757ce3"/>
            <path id="Path_51" data-name="Path 51" d="M170.361,198.711c.437,5.16,4.007,9.626,8.308,12.51,2.487,1.668,5.639,2.938,8.431,1.857,2.4-.93,3.87-3.344,4.912-5.7,3.1-7.02,4.146-15.131,9.04-21.044,1.5-1.815,3.331-3.367,4.611-5.345s1.934-4.6.828-6.683a8.8,8.8,0,0,0-2.778-2.784q-3.515-2.551-7.268-4.752" fill="#757ce3"/>
            <g id="Group_36" data-name="Group 36" opacity="0.29" style="mix-blend-mode: multiply;isolation: isolate">
              <g id="Group_33" data-name="Group 33">
                <path id="Path_52" data-name="Path 52" d="M230.288,131.066a19.378,19.378,0,0,0-2.763,2.285,48.933,48.933,0,0,0-6.68,7.173,25.437,25.437,0,0,0-3.322,5.968,37.752,37.752,0,0,0-1.832,7.6,42.565,42.565,0,0,1-1.918,8.2,28.5,28.5,0,0,1-4.389,7.8c-3.843,4.859-9.118,7.866-13.648,10.853a61.926,61.926,0,0,0-6.306,4.57,29.1,29.1,0,0,0-4.632,5.011,20.363,20.363,0,0,0-2.669,4.966,15.059,15.059,0,0,0-.863,4.171,10.174,10.174,0,0,0,.019,1.552,6.924,6.924,0,0,0,.142,1.125,2.849,2.849,0,0,0,.249.9c.123-.017-.187-1.282.04-3.541a15.659,15.659,0,0,1,1.019-3.977A20.54,20.54,0,0,1,185.459,191a29.276,29.276,0,0,1,4.59-4.762,64.333,64.333,0,0,1,6.266-4.407c2.287-1.461,4.739-2.949,7.166-4.7a33.321,33.321,0,0,0,6.81-6.326,29.16,29.16,0,0,0,4.548-8.128,42.461,42.461,0,0,0,1.907-8.419,37.941,37.941,0,0,1,1.677-7.43A25.337,25.337,0,0,1,221.512,141a57.69,57.69,0,0,1,6.325-7.323A23.339,23.339,0,0,0,230.288,131.066Z" fill="#757ce3"/>
              </g>
              <g id="Group_34" data-name="Group 34">
                <path id="Path_53" data-name="Path 53" d="M163.1,187.636a19.456,19.456,0,0,0,.815-3.286c.462-2.125,1.081-5.21,2.02-8.972a73.81,73.81,0,0,1,4.357-12.833,41.252,41.252,0,0,1,9.495-13.359,32.486,32.486,0,0,1,3.385-2.666,30.808,30.808,0,0,1,3.629-2.075,65.95,65.95,0,0,1,7.471-2.842,66.089,66.089,0,0,0,6.876-2.6,39.066,39.066,0,0,0,5.594-3.166,37.093,37.093,0,0,0,6.963-6.116c.724-.821,1.245-1.492,1.58-1.96s.493-.728.461-.752c-.073-.059-.845.867-2.37,2.4a42.174,42.174,0,0,1-7.086,5.741,40.2,40.2,0,0,1-5.536,2.973,69.244,69.244,0,0,1-6.816,2.462,64,64,0,0,0-7.625,2.832,31.31,31.31,0,0,0-3.785,2.143,33.127,33.127,0,0,0-3.518,2.764,41.233,41.233,0,0,0-9.691,13.777,69.158,69.158,0,0,0-4.181,13.085c-.843,3.813-1.34,6.928-1.667,9.08A18.643,18.643,0,0,0,163.1,187.636Z" fill="#757ce3"/>
              </g>
              <g id="Group_35" data-name="Group 35">
                <path id="Path_54" data-name="Path 54" d="M199.382,149.025a6.887,6.887,0,0,0-1.748,1.875,28.27,28.27,0,0,0-3.186,6.208c-1.12,2.7-2.171,6.057-4.349,9.138-2.164,3.106-5.431,5.809-8.888,8.621s-6.734,5.753-8.724,9.227a22.012,22.012,0,0,0-2.761,10.019,48.726,48.726,0,0,0,.177,6.962,10.307,10.307,0,0,0,.371,2.524,11.31,11.31,0,0,0,.08-2.546c0-1.632-.063-4,.189-6.879a22.03,22.03,0,0,1,2.863-9.537c1.925-3.25,5.1-6.072,8.542-8.875s6.8-5.6,9.029-8.907c2.251-3.3,3.218-6.744,4.236-9.455a33.986,33.986,0,0,1,2.8-6.25C198.855,149.773,199.458,149.1,199.382,149.025Z" fill="#757ce3"/>
              </g>
            </g>
          </g>
          <g id="Group_41" data-name="Group 41">
            <path id="Path_55" data-name="Path 55" d="M608.527,196.17H560.793a27.362,27.362,0,0,0-27.362,27.362v22.635A27.358,27.358,0,0,0,559.8,273.5v10.007a2.944,2.944,0,0,0,4.969,2.136l12.778-12.118h30.976a27.362,27.362,0,0,0,27.362-27.362V223.532A27.362,27.362,0,0,0,608.527,196.17Z" fill="#e262a7"/>
            <g id="Group_40" data-name="Group 40">
              <circle id="Ellipse_7" data-name="Ellipse 7" cx="25.951" cy="25.951" r="25.951" transform="translate(547.324 234.549) rotate(-45)" fill="#f2a057"/>
              <g id="Group_38" data-name="Group 38">
                <ellipse id="Ellipse_8" data-name="Ellipse 8" cx="1.799" cy="3.565" rx="1.799" ry="3.565" transform="translate(571.388 226.326)" fill="#9b2f6d"/>
                <path id="Path_56" data-name="Path 56" d="M596.66,229.891c0,1.969-.806,3.565-1.8,3.565s-1.8-1.6-1.8-3.565.806-3.565,1.8-3.565S596.66,227.922,596.66,229.891Z" fill="#9b2f6d"/>
              </g>
              <g id="Group_39" data-name="Group 39">
                <path id="Path_57" data-name="Path 57" d="M589.05,236.932c.133,0,.325-.982-.214-2.487a5.516,5.516,0,0,0-1.617-2.3,4.939,4.939,0,0,0-6.55.139,5.735,5.735,0,0,0-1.537,2.345c-.5,1.534-.2,2.523-.073,2.5.186,0,.207-.937.829-2.185a5.787,5.787,0,0,1,1.477-1.852,4.17,4.17,0,0,1,5.191-.111,5.461,5.461,0,0,1,1.534,1.8C588.748,236.018,588.87,236.954,589.05,236.932Z" fill="#9b2f6d"/>
              </g>
              <path id="Path_58" data-name="Path 58" d="M598.468,240.673A8.435,8.435,0,0,0,605.581,249a25.832,25.832,0,0,0,4.394-14.45c0-.591-.027-1.176-.066-1.757a8.423,8.423,0,0,0-11.441,7.881Z" fill="#9b2f6d"/>
              <path id="Path_59" data-name="Path 59" d="M561.139,232.233a8.393,8.393,0,0,0-3,.559c-.039.581-.066,1.166-.066,1.757A25.832,25.832,0,0,0,562.467,249a8.435,8.435,0,0,0-1.328-16.766Z" fill="#9b2f6d"/>
            </g>
          </g>
          <g id="Group_44" data-name="Group 44">
            <g id="Group_42" data-name="Group 42">
              <path id="Path_60" data-name="Path 60" d="M488.689,229.14l4.728,33.667,6-.541-1.362-33.97Z" fill="#4b51c9"/>
              <path id="Path_61" data-name="Path 61" d="M501.348,270.423a4.2,4.2,0,1,0-3.808,4.562A4.2,4.2,0,0,0,501.348,270.423Z" fill="#4b51c9"/>
            </g>
            <g id="Group_43" data-name="Group 43">
              <path id="Path_62" data-name="Path 62" d="M514.053,227.513l-1.37,33.97,6,.542,4.736-33.666Z" fill="#4b51c9"/>
              <circle id="Ellipse_9" data-name="Ellipse 9" cx="4.202" cy="4.202" r="4.202" transform="translate(509.018 269.518) rotate(-40.186)" fill="#4b51c9"/>
            </g>
          </g>
          <path id="Path_63" data-name="Path 63" d="M589.185,163.473l12.892-23.7L612.8,150.522Z" fill="#e262a7"/>
          <path id="Path_64" data-name="Path 64" d="M593.109,177.409l25.535-8.7.614,15.173Z" fill="#f2a057"/>
          <path id="Path_65" data-name="Path 65" d="M299.629,114.6l-26.421-5.454,7.168-13.387Z" fill="#e262a7"/>
          <path id="Path_66" data-name="Path 66" d="M311.824,106.8,296.079,84.895l14.34-4.994Z" fill="#f2a057"/>
          <g id="Group_45" data-name="Group 45">
            <path id="Path_67" data-name="Path 67" d="M466.154,74.937c-.176-3.385-.867-5.915-1.694-5.915s-1.519,2.53-1.695,5.915c-2.938.192-5.113.871-5.113,1.682s2.175,1.489,5.113,1.682c.176,3.385.867,5.915,1.695,5.915s1.518-2.53,1.694-5.915c2.938-.193,5.113-.872,5.113-1.682S469.092,75.129,466.154,74.937Z" fill="#fff"/>
            <path id="Path_68" data-name="Path 68" d="M636.318,287.239c-.175-3.386-.866-5.915-1.694-5.915s-1.519,2.529-1.694,5.915c-2.938.192-5.113.871-5.113,1.682s2.175,1.489,5.113,1.681c.175,3.385.867,5.915,1.694,5.915s1.519-2.529,1.694-5.915c2.939-.192,5.114-.871,5.114-1.681S639.257,287.431,636.318,287.239Z" fill="#fff"/>
            <path id="Path_69" data-name="Path 69" d="M669.544,202.886c-.175-3.385-.866-5.915-1.694-5.915s-1.519,2.53-1.694,5.915c-2.939.193-5.114.871-5.114,1.682s2.175,1.489,5.114,1.682c.175,3.385.866,5.915,1.694,5.915s1.519-2.53,1.694-5.915c2.939-.193,5.114-.872,5.114-1.682S672.483,203.079,669.544,202.886Z" fill="#fff"/>
            <path id="Path_70" data-name="Path 70" d="M345.865,184.4c-.175-3.385-.866-5.915-1.694-5.915s-1.519,2.53-1.694,5.915c-2.939.192-5.114.871-5.114,1.682s2.175,1.489,5.114,1.682c.175,3.385.866,5.915,1.694,5.915s1.519-2.53,1.694-5.915c2.939-.193,5.114-.872,5.114-1.682S348.8,184.6,345.865,184.4Z" fill="#fff"/>
            <path id="Path_71" data-name="Path 71" d="M632.3,124.986c0-.393-1.353-.721-3.152-.8-.068-2.108-.4-3.71-.8-3.71s-.733,1.6-.8,3.71c-1.8.077-3.151.4-3.151.8s1.352.722,3.151.8c.069,2.108.4,3.71.8,3.71s.733-1.6.8-3.71C630.95,125.708,632.3,125.38,632.3,124.986Z" fill="#fff"/>
            <path id="Path_72" data-name="Path 72" d="M527.376,51.072c0-.393-1.353-.721-3.152-.8-.068-2.108-.4-3.71-.8-3.71s-.733,1.6-.8,3.71c-1.8.076-3.152.405-3.152.8s1.353.722,3.152.8c.068,2.108.4,3.71.8,3.71s.733-1.6.8-3.71C526.023,51.794,527.376,51.465,527.376,51.072Z" fill="#fff"/>
            <path id="Path_73" data-name="Path 73" d="M461.605,157.318c0-.393-1.353-.722-3.152-.8-.068-2.108-.4-3.71-.8-3.71s-.733,1.6-.8,3.71c-1.8.076-3.152.4-3.152.8s1.353.721,3.152.8c.068,2.108.4,3.71.8,3.71s.733-1.6.8-3.71C460.252,158.039,461.605,157.711,461.605,157.318Z" fill="#fff"/>
            <path id="Path_74" data-name="Path 74" d="M552.4,302.1c0-.393-1.353-.721-3.152-.8-.068-2.108-.4-3.71-.8-3.71s-.733,1.6-.8,3.71c-1.8.077-3.152.4-3.152.8s1.353.722,3.152.8c.068,2.109.4,3.71.8,3.71s.733-1.6.8-3.71C551.044,302.82,552.4,302.492,552.4,302.1Z" fill="#fff"/>
            <path id="Path_75" data-name="Path 75" d="M614.995,338.326c0-.393-1.352-.721-3.152-.8-.068-2.108-.4-3.71-.8-3.71s-.733,1.6-.8,3.71c-1.8.077-3.152.4-3.152.8s1.353.722,3.152.8c.068,2.109.4,3.71.8,3.71s.733-1.6.8-3.71C613.643,339.048,614.995,338.719,614.995,338.326Z" fill="#fff"/>
            <path id="Path_76" data-name="Path 76" d="M316.872,134.828c0-.394-1.353-.722-3.152-.8-.068-2.108-.4-3.71-.8-3.71s-.733,1.6-.8,3.71c-1.8.076-3.152.4-3.152.8s1.353.721,3.152.8c.068,2.108.4,3.71.8,3.71s.733-1.6.8-3.71C315.519,135.549,316.872,135.221,316.872,134.828Z" fill="#fff"/>
          </g>
          <g id="Group_57" data-name="Group 57">
            <path id="Path_77" data-name="Path 77" d="M431.417,135.378a53.83,53.83,0,1,0-16.408,15.58l15.225,6.329a3.176,3.176,0,0,0,4.35-3.47Z" fill="#f2a057"/>
            <g id="Group_56" data-name="Group 56">
              <g id="Group_48" data-name="Group 48">
                <g id="Group_47" data-name="Group 47">
                  <g id="Group_46" data-name="Group 46">
                    <path id="Path_78" data-name="Path 78" d="M398.654,115.748c-2.257-.692-4.64.441-6.785,1.458-4.24,2.008-8.629,3.721-12.535.266a20.278,20.278,0,0,1-4.088-5.69c-.259-.475-.511-.955-.76-1.438q-.318-.749-.618-1.5a20.314,20.314,0,0,1-1.754-6.784c-.153-5.212,3.973-7.487,8.23-9.458,2.154-1,4.55-2.1,5.464-4.28a7.917,7.917,0,0,0,.313-3.939A33.6,33.6,0,0,0,383.3,74.13a11.961,11.961,0,0,0-3.244-4.592c-2.872-2.255-7.9-1.183-10.89.483C358.435,76,355.1,89.379,356.493,100.655A50.148,50.148,0,0,0,361.2,116.3c.035.072.074.143.109.215s.062.147.1.22a50.078,50.078,0,0,0,9,13.634c7.772,8.287,20.179,14.289,31.647,9.877,3.191-1.228,7.236-4.406,7.342-8.057a11.96,11.96,0,0,0-1.45-5.432,33.646,33.646,0,0,0-6.068-8.729A7.921,7.921,0,0,0,398.654,115.748Z" fill="#4b51c9"/>
                  </g>
                  <path id="Path_79" data-name="Path 79" d="M379.089,93.2q.623-.306,1.255-.6l.42-.2a178.494,178.494,0,0,0-7.623-23.856,15.206,15.206,0,0,0-1.754.5A176.322,176.322,0,0,1,379.089,93.2Z" fill="#394296"/>
                  <path id="Path_80" data-name="Path 80" d="M403.963,139.329a15.177,15.177,0,0,0,1.531-1.014,109.878,109.878,0,0,0-13.156-21.331l-.469.222q-.61.288-1.224.563A108.266,108.266,0,0,1,403.963,139.329Z" fill="#394296"/>
                </g>
              </g>
              <g id="Group_55" data-name="Group 55">
                <g id="Group_49" data-name="Group 49">
                  <path id="Path_81" data-name="Path 81" d="M392.915,59.159c-.486-.407-2.08.7-3.287,2.659s-1.492,3.876-.91,4.128,1.762-1.108,2.881-2.909S393.412,59.571,392.915,59.159Z" fill="#fff"/>
                </g>
                <g id="Group_50" data-name="Group 50">
                  <path id="Path_82" data-name="Path 82" d="M404.182,68.7c-.2-.608-2.494-.395-5.122.476s-4.594,2.069-4.393,2.677,2.495.394,5.122-.477S404.384,69.3,404.182,68.7Z" fill="#fff"/>
                </g>
                <g id="Group_51" data-name="Group 51">
                  <path id="Path_83" data-name="Path 83" d="M405.642,82.265c-.029-.646-1.783-1.087-3.9-1.333s-3.925-.2-4.1.426,1.516,1.617,3.836,1.877S405.675,82.9,405.642,82.265Z" fill="#fff"/>
                </g>
                <g id="Group_52" data-name="Group 52">
                  <path id="Path_84" data-name="Path 84" d="M411.61,103.912c-.535-.344-2.209,1.306-3.572,3.782s-1.87,4.771-1.293,5.04,2-1.521,3.322-3.92S412.152,104.26,411.61,103.912Z" fill="#fff"/>
                </g>
                <g id="Group_53" data-name="Group 53">
                  <path id="Path_85" data-name="Path 85" d="M421.919,112.744c-.333-.546-2.458.139-4.748,1.532s-3.875,2.966-3.543,3.512,2.459-.139,4.748-1.531S422.252,113.291,421.919,112.744Z" fill="#fff"/>
                </g>
                <g id="Group_54" data-name="Group 54">
                  <path id="Path_86" data-name="Path 86" d="M423.737,127.816c.216-.6-1.6-1.8-4.129-2.435s-4.7-.445-4.79.183,1.817,1.453,4.222,2.064S423.519,128.423,423.737,127.816Z" fill="#fff"/>
                </g>
              </g>
            </g>
          </g>
          <g id="Group_63" data-name="Group 63">
            <path id="Path_87" data-name="Path 87" d="M456.417,183.933H387.675a20.8,20.8,0,0,0-20.8,20.8v35.12a20.8,20.8,0,0,0,20.8,20.8h41.487l16.247,11.918a2.892,2.892,0,0,0,4.6-2.332v-9.586h6.4a20.8,20.8,0,0,0,20.8-20.8V204.73A20.8,20.8,0,0,0,456.417,183.933Z" fill="#757ce3"/>
            <g id="Group_58" data-name="Group 58">
              <circle id="Ellipse_10" data-name="Ellipse 10" cx="12.476" cy="12.476" r="12.476" transform="translate(362.88 192.023) rotate(-66.086)" fill="#e262a7"/>
              <text id="_" data-name="!" transform="translate(373.242 193.618)" fill="#fff" font-size="19.912" font-family="Helvetica"><tspan x="0" y="0">!</tspan></text>
            </g>
            <g id="Group_62" data-name="Group 62">
              <circle id="Ellipse_11" data-name="Ellipse 11" cx="30.036" cy="30.036" r="30.036" transform="matrix(0.987, -0.159, 0.159, 0.987, 388.279, 198.766)" fill="#4b51c9"/>
              <circle id="Ellipse_12" data-name="Ellipse 12" cx="22.661" cy="22.661" r="22.661" transform="translate(400.04 200.994)" fill="#fff"/>
              <g id="Group_61" data-name="Group 61">
                <g id="Group_59" data-name="Group 59">
                  <path id="Path_88" data-name="Path 88" d="M422.7,242.743h0a1.064,1.064,0,0,1-1.063-1.064v-3.694a1.064,1.064,0,0,1,1.063-1.064h0a1.064,1.064,0,0,1,1.064,1.064v3.694A1.064,1.064,0,0,1,422.7,242.743Z" fill="#e262a7"/>
                  <path id="Path_89" data-name="Path 89" d="M422.7,210.39h0a1.064,1.064,0,0,1-1.063-1.064v-3.694a1.063,1.063,0,0,1,1.063-1.064h0a1.064,1.064,0,0,1,1.064,1.064v3.694A1.064,1.064,0,0,1,422.7,210.39Z" fill="#e262a7"/>
                </g>
                <g id="Group_60" data-name="Group 60">
                  <path id="Path_90" data-name="Path 90" d="M441.789,223.655h0a1.064,1.064,0,0,1-1.064,1.064h-3.694a1.064,1.064,0,0,1-1.064-1.064h0a1.063,1.063,0,0,1,1.064-1.063h3.694A1.064,1.064,0,0,1,441.789,223.655Z" fill="#e262a7"/>
                  <path id="Path_91" data-name="Path 91" d="M409.436,223.655h0a1.064,1.064,0,0,1-1.064,1.064h-3.694a1.064,1.064,0,0,1-1.064-1.064h0a1.063,1.063,0,0,1,1.064-1.063h3.694A1.064,1.064,0,0,1,409.436,223.655Z" fill="#e262a7"/>
                </g>
              </g>
              <path id="Path_92" data-name="Path 92" d="M422.882,224.719h0a1.244,1.244,0,0,1-1.244-1.244v-7.617a1.244,1.244,0,0,1,1.244-1.244h0a1.245,1.245,0,0,1,1.245,1.244v7.617A1.245,1.245,0,0,1,422.882,224.719Z" fill="#4b51c9"/>
              <path id="Path_93" data-name="Path 93" d="M421.654,222.662h0a1.243,1.243,0,0,1,1.722-.363l10.384,6.768a1.245,1.245,0,0,1,.363,1.722h0a1.246,1.246,0,0,1-1.723.363l-10.383-6.768A1.245,1.245,0,0,1,421.654,222.662Z" fill="#4b51c9"/>
            </g>
          </g>
          <g id="Group_66" data-name="Group 66">
            <path id="Path_94" data-name="Path 94" d="M524.169,80.82a53.521,53.521,0,0,0-30.062,97.8l.236,17.33a3.139,3.139,0,0,0,5.01,2.478l15.377-11.416A53.516,53.516,0,1,0,524.169,80.82Z" fill="#4b51c9"/>
            <g id="Group_64" data-name="Group 64">
              <rect id="Rectangle_4" data-name="Rectangle 4" width="68.872" height="48.533" rx="8.716" transform="translate(491.41 110.561)" fill="#fff"/>
              <path id="Path_95" data-name="Path 95" d="M558.55,114.079a8.7,8.7,0,0,0-.929-1.063l-31.364,22.43a1.514,1.514,0,0,1-1.816-.033l-29.735-22.955a8.756,8.756,0,0,0-1.034.976l24.318,18.774-24.173,24.173a8.739,8.739,0,0,0,1.051.937l24.244-24.244,4.471,3.451a2.911,2.911,0,0,0,3.491.064l5.26-3.762,24.49,24.491a8.737,8.737,0,0,0,1.051-.937L533.492,132Z" fill="#4b51c9"/>
            </g>
            <g id="Group_65" data-name="Group 65">
              <path id="Path_96" data-name="Path 96" d="M568.706,97.535c6.245-13.436-4.364-26.547-17.4-24.9A17.063,17.063,0,0,0,536.633,87.3c-1.642,13.036,11.468,23.645,24.9,17.4A14.792,14.792,0,0,0,568.706,97.535Z" fill="#e262a7"/>
              <text id="_37" data-name="37" transform="translate(542.188 97.251)" fill="#4b51c9" font-size="18.062" font-family="Helvetica"><tspan x="0" y="0">37</tspan></text>
            </g>
          </g>
          <g id="Group_70" data-name="Group 70">
            <path id="Path_97" data-name="Path 97" d="M617.83,384.571c-6.338-6.918-20.774-9.081-32.54-9.625,0,0-2.408-.15-3.7-.123-1.29-.027-3.7.123-3.7.123-11.766.544-26.2,2.707-32.54,9.625,0,0-6.94,39.206,12.054,53.936h48.369C624.77,423.777,617.83,384.571,617.83,384.571Z" fill="#f2a057"/>
            <path id="Path_98" data-name="Path 98" d="M610.618,408.628c-9.4-2.651-19.395-1.391-29.143-1.961a28.776,28.776,0,0,1-10.964-2.381c-5.869-2.85-9.76-8.842-11.408-15.156a41.407,41.407,0,0,1-1.164-11.312c-4.841,1.375-9.09,3.353-11.969,6.155l-.638.727c-.409,2.441-6.289,39.564,12.076,53.807h48.369c7.92-6.143,11.329-16.542,12.614-26.58A33.887,33.887,0,0,0,610.618,408.628Z" fill="#f2a057" opacity="0.26" style="mix-blend-mode: multiply;isolation: isolate"/>
            <ellipse id="Ellipse_13" data-name="Ellipse 13" cx="29.45" cy="6.923" rx="29.45" ry="6.923" transform="translate(552.142 380.437)" fill="#c67634"/>
            <g id="Group_67" data-name="Group 67">
              <path id="Path_99" data-name="Path 99" d="M544.237,395.722c-.049,1.04-.085,2.131-.1,3.263,24.384,6.983,50.1,5.289,74.9-.846-.028-1.122-.071-2.2-.127-3.226C594.187,401.122,568.511,402.894,544.237,395.722Z" fill="#9b2f6d"/>
              <path id="Path_100" data-name="Path 100" d="M544.491,409.176c.1,1.123.231,2.257.387,3.394,23.963,6.682,49.186,5.042,73.547-.909.14-1.119.253-2.234.343-3.337C594.177,414.484,568.644,416.247,544.491,409.176Z" fill="#9b2f6d"/>
              <path id="Path_101" data-name="Path 101" d="M547.334,423.341c.416,1.23.879,2.437,1.4,3.611,21.646,5.215,44.219,3.884,66.178-1.082.471-1.155.892-2.339,1.269-3.541C593.354,427.742,569.793,429.253,547.334,423.341Z" fill="#9b2f6d"/>
            </g>
            <path id="Path_102" data-name="Path 102" d="M613.544,364.275a3.176,3.176,0,0,0-2.561-1.915,6.666,6.666,0,0,0-3.286.5,15.548,15.548,0,0,0-7.866,6.707c.264-2.776.418-5.575.495-8.38a16.054,16.054,0,0,0,.811-14.73c-.591-1.218-1.513-2.456-2.851-2.658a3.175,3.175,0,0,0-2.894,1.361,6.662,6.662,0,0,0-1.1,3.137,15.585,15.585,0,0,0,4.048,12.512c-.075,3.165-.234,6.333-.556,9.469a15.79,15.79,0,0,0-6.664-10.858c-1.131-.743-2.558-1.334-3.811-.821a3.174,3.174,0,0,0-1.787,2.652,6.67,6.67,0,0,0,.661,3.257,15.559,15.559,0,0,0,10.948,8.937l.242.186a63.772,63.772,0,0,1-1.843,8.7,15.613,15.613,0,0,0-5.635-10.2c-1.067-.832-2.44-1.537-3.731-1.129a3.175,3.175,0,0,0-2,2.5,6.66,6.66,0,0,0,.393,3.3,15.556,15.556,0,0,0,9.6,9.592c-.053.139-.1.28-.156.419,0,0-.051.089-.1.187-.063.125-.123.267-.074.279a43.041,43.041,0,0,1-3.45,6.692c.832-.061,1.644-.132,2.443-.21a46.829,46.829,0,0,0,2.963-6.148,17,17,0,0,0,2.881.04,15.555,15.555,0,0,0,10.469-4.713c.921-.992,1.741-2.3,1.444-3.621a3.175,3.175,0,0,0-2.318-2.2,6.661,6.661,0,0,0-3.321.11,15.418,15.418,0,0,0-7.078,3.973,67.946,67.946,0,0,0,1.41-6.945,16.047,16.047,0,0,0,13.267-6.208C613.335,366.947,613.995,365.551,613.544,364.275Z" fill="#4b51c9"/>
            <g id="Group_69" data-name="Group 69">
              <g id="Group_68" data-name="Group 68">
                <path id="Path_103" data-name="Path 103" d="M598.665,387.649a17,17,0,0,1-2.881-.04,46.829,46.829,0,0,1-2.963,6.148c6.764-.657,12.267-1.886,15.391-3.434A36.416,36.416,0,0,0,598.665,387.649Z" fill="#9b2f6d"/>
                <path id="Path_104" data-name="Path 104" d="M593.9,387a115.319,115.319,0,0,0-12.31-.633c-3.432,0-6.72.142-9.783.395a44.244,44.244,0,0,0,3.521,7.367c2.018.1,4.112.158,6.262.158,3.062,0,6.01-.112,8.786-.316a43.041,43.041,0,0,0,3.45-6.692C593.779,387.263,593.839,387.121,593.9,387Z" fill="#9b2f6d"/>
                <path id="Path_105" data-name="Path 105" d="M554.972,390.323c3.5,1.733,9.964,3.068,17.853,3.646a46.185,46.185,0,0,1-3.171-7.01C563.215,387.631,557.987,388.829,554.972,390.323Z" fill="#9b2f6d"/>
              </g>
              <path id="Path_106" data-name="Path 106" d="M571.313,385.352c.085-.014-.152-.469-.152-.469-.049-.15-.1-.3-.145-.451a16.22,16.22,0,0,0,10.6-9.351,6.952,6.952,0,0,0,.626-3.4,3.307,3.307,0,0,0-1.912-2.727c-1.314-.509-2.788.133-3.952.928a16.248,16.248,0,0,0-6.522,10.2,66.659,66.659,0,0,1-1.339-9.138l.255-.171a16.2,16.2,0,0,0,11.967-8.565,6.946,6.946,0,0,0,.9-3.341,3.307,3.307,0,0,0-1.682-2.874c-1.268-.615-2.79-.1-4.014.6a16.436,16.436,0,0,0-7.636,10.812c-.129-3.266-.091-6.557.038-9.842a16.233,16.233,0,0,0,5.036-12.739,6.946,6.946,0,0,0-.937-3.332,3.308,3.308,0,0,0-2.918-1.605c-1.4.121-2.444,1.347-3.139,2.573a16.721,16.721,0,0,0-.136,15.349c-.106,2.891-.143,5.788-.058,8.669a16.2,16.2,0,0,0-7.7-7.4,6.944,6.944,0,0,0-3.382-.738,3.307,3.307,0,0,0-2.788,1.821c-.553,1.3.041,2.79.8,3.98a16.709,16.709,0,0,0,13.355,7.327,71.029,71.029,0,0,0,.967,7.245,16.041,16.041,0,0,0-7.031-4.531,6.945,6.945,0,0,0-3.445-.333,3.308,3.308,0,0,0-2.554,2.137c-.4,1.353.371,2.766,1.262,3.858a16.644,16.644,0,0,0,13.511,5.739c.15.463.309.924.473,1.384.7-.074,1.424-.14,2.155-.2Q571.549,386.059,571.313,385.352Z" fill="#4b51c9"/>
              <path id="Path_107" data-name="Path 107" d="M569.654,386.959a46.185,46.185,0,0,0,3.171,7.01q1.231.09,2.505.156a44.244,44.244,0,0,1-3.521-7.367C571.078,386.819,570.358,386.885,569.654,386.959Z" fill="#4b51c9"/>
            </g>
          </g>
          <g id="Group_71" data-name="Group 71">
            <path id="Path_108" data-name="Path 108" d="M523.764,435.112l-181.818.952a5.048,5.048,0,0,1-5.074-4.945l-2.805-136.991a5.049,5.049,0,0,1,5.048-5.153H526.542a5.05,5.05,0,0,1,5.048,5.153l-2.805,136.039A5.049,5.049,0,0,1,523.764,435.112Z" fill="#fff"/>
            <circle id="Ellipse_14" data-name="Ellipse 14" cx="14.097" cy="14.097" r="14.097" transform="translate(418.731 333.818)" fill="#d3d7f2"/>
            <rect id="Rectangle_5" data-name="Rectangle 5" width="198.051" height="6.463" rx="2.834" transform="translate(333.803 430.631)" fill="#c7cce2"/>
            <path id="Path_109" data-name="Path 109" d="M529.606,390.348a75.457,75.457,0,0,0-7.048-5.392c-17.143-11.6-37.424-17.97-57.922-20.853-21.426-3.015-44.534-2.78-62.535-14.784-11.827-7.887-20.1-20.493-24.124-34.125a83.9,83.9,0,0,1-3.212-26.219h-35.65a5.049,5.049,0,0,0-5.048,5.153l2.805,136.991c0,.038.012.073.014.111q4.664,2.388,9.312,4.812l177.566-.93a5.049,5.049,0,0,0,5.021-4.945Z" fill="#d3d7f2" opacity="0.15" style="mix-blend-mode: multiply;isolation: isolate"/>
          </g>
        </g>
        <rect id="Rectangle_6" data-name="Rectangle 6" width="587.907" height="18.35" rx="6.798" transform="translate(75.342 435.086)" fill="#4b51c9"/>
      </g>
    </g>
  </g>
</svg>
