<svg xmlns="http://www.w3.org/2000/svg" xmlns:xlink="http://www.w3.org/1999/xlink" width="749.999" height="500" viewBox="0 0 749.999 500">
  <defs>
    <clipPath id="clip-Artboard_4">
      <rect width="749.999" height="500"/>
    </clipPath>
  </defs>
  <g id="Artboard_4" data-name="Artboard 4" clip-path="url(#clip-Artboard_4)">
    <g id="BACKGROUND">
      <path id="Path_1" data-name="Path 1" d="M579.155,403.048C639.591,253.362,618.728,95.46,494.409,70.477,339.94,39.43,340.192,143.5,209.2,119.2c-98.132-18.208-124.49,210.84-50.66,283.851Z" fill="#f8f7ff"/>
      <g id="Group_1" data-name="Group 1">
        <path id="Path_2" data-name="Path 2" d="M586.593,404.156c-27.655-47.093,28.989-245.9,80.129-347.363,22.759,24.806,37.97,39.2,18.78,72.985-10.513,13.984-31.848,20.72-39.808,36.031-10.616,20.416-.92,17.353-1.226,36.646-.918,17.352,13.269,15.005,2.655,35.418-8.576,13.373-40.114,14.8-44.914,33.381-4.9,25.009,21.436,27.357,11.945,58.081-7.349,17.25-25.521,27.256-28.376,45.224A63.548,63.548,0,0,0,586.593,404.156Z" fill="#f1f0ff"/>
        <path id="Path_3" data-name="Path 3" d="M572.44,371.3C539.369,307.1,549.881,131.016,460.262,103.865c.2,27.661,17.351,41.441,31.13,64.816,4.389,7.146,15.211,14.393,15.719,22.764,2.352,14.188-9.948,18.2-9.948,34.231,0,22.466,31.589,20.786,32.509,43.959,1.734,12.249-13.779,17.146-13.272,25.519-1.937,41.133,38.588,81.66,70.947,109.831Z" fill="#f1f0ff"/>
        <path id="Path_4" data-name="Path 4" d="M583.206,400.032c-34.589-76.442-28.34-166.685-28.34-250.149,28.9,13.13,13.8,40.836,20.368,58.569,1.4,6.917,17.518,4.915,17.307,16.4.528,13.028-18.819,24.159-25.137,34.764,25.033,12.711.05,27.288.5,44.144C569.7,331.354,583.206,400.032,583.206,400.032Z" fill="#f1f0ff"/>
      </g>
      <path id="Path_5" data-name="Path 5" d="M122.862,130.641A17.742,17.742,0,1,1,105.121,112.9,17.741,17.741,0,0,1,122.862,130.641Z" fill="#f8f7ff"/>
      <path id="Path_6" data-name="Path 6" d="M153.394,97.926a11.532,11.532,0,1,1-11.531-11.532A11.532,11.532,0,0,1,153.394,97.926Z" fill="#f8f7ff"/>
      <path id="Path_7" data-name="Path 7" d="M651.791,353.8a13.07,13.07,0,1,1-13.069-13.07A13.067,13.067,0,0,1,651.791,353.8Z" fill="#f8f7ff"/>
      <circle id="Ellipse_1" data-name="Ellipse 1" cx="24.984" cy="24.984" r="24.984" transform="translate(643.993 268.138)" fill="#f8f7ff"/>
    </g>
    <g id="OBJECTS">
      <line id="Line_1" data-name="Line 1" x2="504.183" transform="translate(115.582 402.444)" fill="none" stroke="#dcd9ff" stroke-linecap="round" stroke-miterlimit="10" stroke-width="6.236"/>
      <g id="Group_7" data-name="Group 7">
        <g id="Group_4" data-name="Group 4">
          <path id="Path_8" data-name="Path 8" d="M353.948,362.6c1.3,3.148,5.75,13.888,7.055,17.036a16.712,16.712,0,0,1-30.88,12.791c-1.3-3.15-5.752-13.889-7.055-17.037Zm-150.477,0c-1.306,3.148-5.75,13.888-7.056,17.036a16.711,16.711,0,0,0,30.878,12.791c1.3-3.15,5.75-13.889,7.054-17.037Z" fill="#8a78e4"/>
          <g id="Group_2" data-name="Group 2" opacity="0.2" style="mix-blend-mode: multiply;isolation: isolate">
            <path id="Path_9" data-name="Path 9" d="M225.191,390.329a16.721,16.721,0,0,1-26.109,6.468,16.695,16.695,0,0,0,28.211-4.366c1.3-3.15,5.75-13.889,7.054-17.037l-2.537-1.051Z"/>
            <path id="Path_10" data-name="Path 10" d="M361,379.64c-1.3-3.148-5.753-13.888-7.055-17.036l-1.052.436c1.841,4.445,4.95,11.952,6.005,14.5A16.706,16.706,0,0,1,332.7,396.7,16.714,16.714,0,0,0,361,379.64Z"/>
          </g>
          <g id="Group_3" data-name="Group 3">
            <path id="Path_11" data-name="Path 11" d="M324.119,376.445l29.3-12.136c-.184-.447-.359-.867-.525-1.269l-29.828,12.354c1.3,3.148,5.751,13.887,7.055,17.037a16.518,16.518,0,0,0,2.61,4.291c.2.167.4.337.609.494a16.724,16.724,0,0,1-2.169-3.735C329.871,390.333,325.422,379.593,324.119,376.445Z" fill="#fff"/>
            <path id="Path_12" data-name="Path 12" d="M231.81,374.343,203.471,362.6c-1.306,3.148-5.75,13.888-7.056,17.036a16.671,16.671,0,0,0,2.625,17.079c.193.162.382.33.584.485a16.689,16.689,0,0,1-2.158-16.513c1.306-3.148,5.751-13.888,7.056-17.036l27.069,11.214Z" fill="#fff"/>
          </g>
        </g>
        <path id="Path_13" data-name="Path 13" d="M403.032,277.769A124.981,124.981,0,1,0,278.048,402.752,124.986,124.986,0,0,0,403.032,277.769Z" fill="#e9e7ff"/>
        <path id="Path_14" data-name="Path 14" d="M388,277.769A109.944,109.944,0,1,0,278.048,387.712,109.946,109.946,0,0,0,388,277.769Z" fill="#8a78e4"/>
        <g id="Group_5" data-name="Group 5">
          <line id="Line_2" data-name="Line 2" y1="12.575" transform="translate(278.707 173.518)" fill="none" stroke="#fff" stroke-linecap="round" stroke-miterlimit="10" stroke-width="2.563"/>
          <line id="Line_3" data-name="Line 3" x1="6.289" y1="10.889" transform="translate(226.498 187.157)" fill="none" stroke="#fff" stroke-linecap="round" stroke-miterlimit="10" stroke-width="2.563"/>
          <line id="Line_4" data-name="Line 4" x1="10.887" y1="6.287" transform="translate(188.106 225.071)" fill="none" stroke="#fff" stroke-linecap="round" stroke-miterlimit="10" stroke-width="2.563"/>
          <line id="Line_5" data-name="Line 5" x1="12.577" transform="translate(173.812 277.114)" fill="none" stroke="#fff" stroke-linecap="round" stroke-miterlimit="10" stroke-width="2.563"/>
          <line id="Line_6" data-name="Line 6" x1="10.887" y2="6.29" transform="translate(187.448 323.03)" fill="none" stroke="#fff" stroke-linecap="round" stroke-miterlimit="10" stroke-width="2.563"/>
          <line id="Line_7" data-name="Line 7" x1="6.284" y2="10.893" transform="translate(225.364 356.823)" fill="none" stroke="#fff" stroke-linecap="round" stroke-miterlimit="10" stroke-width="2.563"/>
          <line id="Line_8" data-name="Line 8" y2="12.572" transform="translate(277.391 369.435)" fill="none" stroke="#fff" stroke-linecap="round" stroke-miterlimit="10" stroke-width="2.563"/>
          <line id="Line_9" data-name="Line 9" x2="6.291" y2="10.892" transform="translate(323.313 357.48)" fill="none" stroke="#fff" stroke-linecap="round" stroke-miterlimit="10" stroke-width="2.563"/>
          <line id="Line_10" data-name="Line 10" x2="10.89" y2="6.287" transform="translate(357.108 324.171)" fill="none" stroke="#fff" stroke-linecap="round" stroke-miterlimit="10" stroke-width="2.563"/>
          <line id="Line_11" data-name="Line 11" x2="12.574" transform="translate(369.716 278.427)" fill="none" stroke="#fff" stroke-linecap="round" stroke-miterlimit="10" stroke-width="2.563"/>
          <line id="Line_12" data-name="Line 12" y1="6.288" x2="10.892" transform="translate(357.763 226.209)" fill="none" stroke="#fff" stroke-linecap="round" stroke-miterlimit="10" stroke-width="2.563"/>
          <line id="Line_13" data-name="Line 13" y1="10.891" x2="6.289" transform="translate(324.453 187.813)" fill="none" stroke="#fff" stroke-linecap="round" stroke-miterlimit="10" stroke-width="2.563"/>
        </g>
        <g id="Group_6" data-name="Group 6">
          <line id="Line_14" data-name="Line 14" y2="76.896" transform="translate(278.048 200.873)" fill="none" stroke="#fff" stroke-linecap="round" stroke-miterlimit="10" stroke-width="8.97"/>
          <line id="Line_15" data-name="Line 15" x1="45.454" y1="26.415" transform="translate(278.048 277.769)" fill="none" stroke="#fff" stroke-linecap="round" stroke-miterlimit="10" stroke-width="8.97"/>
        </g>
        <line id="Line_16" data-name="Line 16" y1="43.702" x2="46.151" transform="translate(239.302 270.304)" fill="none" stroke="#fff" stroke-linecap="round" stroke-miterlimit="10" stroke-width="3.844"/>
        <path id="Path_15" data-name="Path 15" d="M156.222,280.922a124.973,124.973,0,0,1,211.731-89.971A124.977,124.977,0,1,0,191.259,367.69,124.568,124.568,0,0,1,156.222,280.922Z" fill="#fff"/>
        <path id="Path_16" data-name="Path 16" d="M364.8,187.8A124.975,124.975,0,0,1,188.107,364.537,124.977,124.977,0,1,0,364.8,187.8Z" opacity="0.2" style="mix-blend-mode: multiply;isolation: isolate"/>
        <path id="Path_17" data-name="Path 17" d="M171.26,280.922a109.94,109.94,0,0,1,186.06-79.341A109.944,109.944,0,1,0,201.887,357.054,109.575,109.575,0,0,1,171.26,280.922Z" opacity="0.2" style="mix-blend-mode: multiply;isolation: isolate"/>
      </g>
      <g id="Group_17" data-name="Group 17">
        <rect id="Rectangle_1" data-name="Rectangle 1" width="5.822" height="39.688" transform="translate(426.992 347.684)" fill="#e9e7ff"/>
        <path id="Path_18" data-name="Path 18" d="M429.908,382.082h0l-51.856,4.583v6.116H481.763v-6.116Z" fill="#e9e7ff"/>
        <path id="Path_19" data-name="Path 19" d="M410.94,398.042a4.709,4.709,0,1,0,4.709-4.707A4.709,4.709,0,0,0,410.94,398.042Z" fill="#8a78e4"/>
        <path id="Path_20" data-name="Path 20" d="M438.627,398.042a4.71,4.71,0,1,0,4.71-4.707A4.712,4.712,0,0,0,438.627,398.042Z" fill="#8a78e4"/>
        <path id="Path_21" data-name="Path 21" d="M475.091,398.042a4.708,4.708,0,1,0,4.708-4.707A4.711,4.711,0,0,0,475.091,398.042Z" fill="#8a78e4"/>
        <g id="Group_8" data-name="Group 8">
          <path id="Path_22" data-name="Path 22" d="M397.725,197.722A95.7,95.7,0,0,0,537.271,312.816" fill="none" stroke="#fde7a7" stroke-linecap="round" stroke-miterlimit="10" stroke-width="4.582"/>
          <path id="Path_23" data-name="Path 23" d="M358.78,232.085l38.945-34.363A95.7,95.7,0,0,0,537.271,312.816l-38.947,34.361A95.7,95.7,0,0,1,358.78,232.085Z" fill="#fdd252"/>
          <line id="Line_17" data-name="Line 17" y1="34.363" x2="38.945" transform="translate(358.78 197.722)" fill="none" stroke="#fde7a7" stroke-linecap="round" stroke-linejoin="round" stroke-width="2.184"/>
          <line id="Line_18" data-name="Line 18" x1="38.947" y2="34.36" transform="translate(498.324 312.816)" fill="none" stroke="#fde7a7" stroke-linecap="round" stroke-linejoin="round" stroke-width="2.184"/>
          <path id="Path_24" data-name="Path 24" d="M358.78,232.085A95.7,95.7,0,0,0,498.324,347.177" fill="none" stroke="#fde7a7" stroke-linecap="round" stroke-miterlimit="10" stroke-width="4.582"/>
        </g>
        <g id="Group_16" data-name="Group 16">
          <g id="Group_9" data-name="Group 9">
            <path id="Path_25" data-name="Path 25" d="M536.709,298.922c2.781,2.048,10.236,6.972,10.274,10.671.065,6.08.944,13.819,9.011,4.893,4.6-5.1,15.034-10.492,17.908-16.233,4.408-8.986-4.311-3.434-8.116-1.778-10.945,4.934-14.005,2.171-23.9-5.843Z" fill="#ff95a9"/>
            <path id="Path_26" data-name="Path 26" d="M557.8,310.655c-8.065,8.925-8.945,1.186-9.01-4.894-.037-3.537-6.843-8.187-9.872-10.378l-2.21,3.539c2.781,2.048,10.236,6.972,10.274,10.671.065,6.08.944,13.819,9.011,4.893,4.6-5.1,15.034-10.492,17.908-16.233a15.07,15.07,0,0,0,1.017-2.533C571.276,300.978,562.057,305.945,557.8,310.655Z" opacity="0.15" style="mix-blend-mode: multiply;isolation: isolate"/>
          </g>
          <g id="Group_10" data-name="Group 10">
            <path id="Path_27" data-name="Path 27" d="M538.265,369.013c.789,3.756,3.324,13.351.616,16.45-4.443,5.083-9.442,12.149,3.845,10.722,7.591-.816,20.229,2.431,26.856-.2,10.307-4.179-1.03-6.034-5.41-7.481-12.722-4.012-13.208-8.564-15.483-22.53Z" fill="#ff95a9"/>
            <path id="Path_28" data-name="Path 28" d="M546.262,394.66c-13.287,1.427-8.288-5.638-3.844-10.721,2.607-2.982.36-11.967-.515-15.988l-3.638,1.062c.789,3.756,3.324,13.351.616,16.45-4.443,5.083-9.442,12.149,3.845,10.722,7.591-.816,20.229,2.431,26.856-.2a18.645,18.645,0,0,0,2.428-1.163C565.161,396.751,553.453,393.888,546.262,394.66Z" opacity="0.15" style="mix-blend-mode: multiply;isolation: isolate"/>
          </g>
          <path id="Path_29" data-name="Path 29" d="M438.135,343.128c12.03-1.965,26.222-15.468,34.032-24.4,9.467-10.342,14.87-21.932,21.4-34.048,2.9-5.471,6.281-11.06,9.484-16.358,6.721,16.122,19.77,26.419,34.886,33.955,2.271-2.014,6.7-10.4,6.7-10.4s-39.045-41.7-42.279-43.656c-4.119-2.486-13.082-.28-15.389,1.537-5.5,5.109-42.8,37.575-53.462,70.484Z" fill="#2b2b43"/>
          <path id="Path_30" data-name="Path 30" d="M422.082,343c11.934,6.4,33.578,4.077,46.5,1.479,15.335-2.724,27.935-9.292,41.878-15.572,6.261-2.861,13.017-5.5,19.416-8.007-4.961,18.752-.413,36.655,7.829,53.52,3.356-.243,12.937-4.656,12.937-4.656s-6.266-63.148-7.792-67.059c-1.949-4.982-11.349-9.094-14.613-9.045-8.3.787-63.138,4.208-94.781,26.025Z" fill="#3c3c5c"/>
          <g id="Group_11" data-name="Group 11">
            <path id="Path_31" data-name="Path 31" d="M454.85,250.41c-3.2,6.566-16.849,25.59-22.4,29.917-3.218,2.253-20.953-12.2-33.05-22.252-7.853-6.52-12.76-17.354-19.586-10.933-11.632,10.934,6.726,19.262,12.868,24.113,9.665,7.091,26.287,22.363,39.348,19.709,10.808-1.744,27.875-37.631,27.762-37.426Z" fill="#5641af"/>
            <path id="Path_32" data-name="Path 32" d="M454.888,250.338c-.013.022-.022.05-.038.072l4.943,3.128c.113-.205.226-.415.33-.6,2.693-3.7,14.375-13.65,9.048-17.78C461.582,229.32,456.682,247,454.888,250.338Z" fill="#e68698"/>
          </g>
          <path id="Path_33" data-name="Path 33" d="M422.082,343s15.361-13.147,14.546-25.856c-.355-5.554-16.125-28.2-23.258-41.116-2.206-12.5-2.618-21.572-16.648-28.4-3.556-1.731-10.237-5.1-15.241-7.024a47.943,47.943,0,0,0-15.249.61C354.68,297.223,422.082,343,422.082,343Z" fill="#634ac9"/>
          <path id="Path_34" data-name="Path 34" d="M368.129,240.887c-.628.1-1.258.205-1.9.33C354.68,297.223,422.082,343,422.082,343s.539-.463,1.412-1.3C409.2,330.861,360.472,289.9,368.129,240.887Z" opacity="0.15" style="mix-blend-mode: multiply;isolation: isolate"/>
          <path id="Path_35" data-name="Path 35" d="M366.232,241.217c1.962-10.592,3.726-16.828,6.523-19.016,2.588-2.025,1.585,3.149,9.855,2.968-.543,4.771-.575,9.23-1.155,15.581C380.845,244.806,366.232,241.217,366.232,241.217Z" fill="#ff7b94"/>
          <g id="Group_12" data-name="Group 12">
            <path id="Path_36" data-name="Path 36" d="M376.558,187.911c-13.86,7.132-18.8,34.025,5.166,42.533,14.327,5.228,24.625-.54,25.714-12.524C408.491,200.21,390.414,180.776,376.558,187.911Z" fill="#ff95a9"/>
          </g>
          <path id="Path_37" data-name="Path 37" d="M381.608,178.342c-6.011,2.959-9.347,9.6-11.044,14.369-4.2,2.088-9.062,6.622-10.418,12.853-2,9.214,8.284,19.271,8.284,19.271s13.531-4.879,15.535-14.091a18.292,18.292,0,0,0-.371-8.812,18.623,18.623,0,0,0,8.777-1.721c9.908-4.878,12.56-19.763,12.56-19.763S391.517,173.465,381.608,178.342Z" fill="#fdd252"/>
          <g id="Group_14" data-name="Group 14">
            <path id="Path_38" data-name="Path 38" d="M472.974,205.359l-3.948,42.132,19.61,7.279,4.28-37.319Z" fill="#fff"/>
            <path id="Path_39" data-name="Path 39" d="M460.22,214l-3.954,42.135,33.8-1.122,4.284-37.318Z" fill="#fdd252"/>
            <g id="Group_13" data-name="Group 13">
              <path id="Path_40" data-name="Path 40" d="M460.066,215.45l.308-2.9,27.032,2.856-14.484-10.049,2.7-1.675,18.126,12.574a1.458,1.458,0,0,1-.985,2.646Z" fill="#fde7a7"/>
            </g>
          </g>
          <g id="Group_15" data-name="Group 15">
            <path id="Path_41" data-name="Path 41" d="M457.848,255.376c-3.631,7.258-19.016,28.237-25.234,32.979-3.6,2.463-23.139-13.807-36.461-25.111-4.277-3.625-5.914-8.15-9.246-11.215-3.413-3.136-8.515-4.731-12.39-1.162-13.053,12.014,7.248,21.483,14.016,26.943,10.654,7.994,28.953,25.153,43.492,22.355,12.027-1.81,31.4-41.481,31.278-41.256Z" fill="#8a78e4"/>
            <path id="Path_42" data-name="Path 42" d="M457.677,255.647c-.01.024-.025.054-.038.081l5.455,3.533c.125-.226.254-.458.372-.668,3.033-4.083,16.132-15,10.258-19.652C465.36,232.369,459.711,251.956,457.677,255.647Z" fill="#ff95a9"/>
          </g>
          <path id="Path_43" data-name="Path 43" d="M346.12,193.261a14.51,14.51,0,1,1,18.8,8.226A14.516,14.516,0,0,1,346.12,193.261Z" fill="#fdd252"/>
          <path id="Path_44" data-name="Path 44" d="M348.221,195.362a14.505,14.505,0,0,1,22.687-16.521,14.508,14.508,0,1,0-20.449,20.365A14.527,14.527,0,0,1,348.221,195.362Z" fill="#fff"/>
          <path id="Path_45" data-name="Path 45" d="M375.591,183.344a25.741,25.741,0,0,0-1.64,2.3,14.452,14.452,0,0,1-12.759,16.746,16.763,16.763,0,0,0-.792,2.184,16.584,16.584,0,0,0,15.191-21.227Z" opacity="0.2" style="mix-blend-mode: multiply;isolation: isolate"/>
          <path id="Path_46" data-name="Path 46" d="M398.718,194.8a18.269,18.269,0,0,1-6.347,5.413,18.623,18.623,0,0,1-8.777,1.721,18.292,18.292,0,0,1,.371,8.812c-1.458,6.7-9,11.1-13.008,13,.448.468.92.925,1.423,1.368,3.773-1.707,12.145-6.227,13.688-13.321a18.33,18.33,0,0,0-.371-8.812,18.63,18.63,0,0,0,8.776-1.72,17.753,17.753,0,0,0,5.741-4.66C399.73,195.983,399.236,195.376,398.718,194.8Z" opacity="0.2" style="mix-blend-mode: multiply;isolation: isolate"/>
          <path id="Path_47" data-name="Path 47" d="M541.326,373.289c-8.654-17.709-13.429-36.506-8.22-56.2-6.72,2.63-13.815,5.4-20.388,8.407-14.64,6.594-27.869,13.49-43.972,16.352-12.6,2.531-32.355,4.915-45.252-.145l-1.412,1.3c11.934,6.4,33.578,4.077,46.5,1.479,15.335-2.724,27.935-9.292,41.878-15.572,6.261-2.861,13.017-5.5,19.416-8.007-4.961,18.752-.413,36.655,7.829,53.52a22.46,22.46,0,0,0,4.983-1.368A9.453,9.453,0,0,1,541.326,373.289Z" opacity="0.2" style="mix-blend-mode: multiply;isolation: isolate"/>
          <path id="Path_48" data-name="Path 48" d="M381.724,230.444a28.338,28.338,0,0,1-9.267-5.267c-.4-.349-.788-.706-1.154-1.072-.035-.035-.073-.067-.106-.1v0h0c-.123.192-.243.395-.363.608-.093.167-.185.347-.276.528-.024.049-.05.092-.073.142-.012.02-.022.039-.032.06l0,0c-1.587,3.255-2.859,8.506-4.223,15.872,0,0,.7.173,1.8.4,1.263-6.773,2.453-11.73,3.9-14.958a28.619,28.619,0,0,0,8.74,4.836c.472.173.935.322,1.4.471.027-.463.055-.923.084-1.375C382.01,230.539,381.869,230.5,381.724,230.444Z" opacity="0.1" style="mix-blend-mode: multiply;isolation: isolate"/>
        </g>
        <path id="Path_49" data-name="Path 49" d="M374,398.042a4.71,4.71,0,1,0,4.71-4.707A4.713,4.713,0,0,0,374,398.042Z" fill="#8a78e4"/>
      </g>
    </g>
  </g>
</svg>
